HIERARCHY
ROOT reference
{
  OFFSET 0 0 0
  CHANNELS 6 Xposition Yposition Zposition Zrotation Xrotation Yrotation
  JOINT Hips
  {
    OFFSET 387.421 88.6843 214.036
    CHANNELS 3 Zrotation Xrotation Yrotation
    JOINT RightUpLeg
    {
      OFFSET -9.26407 -1.54033 -0.0169218
      CHANNELS 3 Zrotation Xrotation Yrotation
      JOINT RightLeg
      {
        OFFSET 0.0262756 -41.889 0.0389421
        CHANNELS 3 Zrotation Xrotation Yrotation
        JOINT RightFoot
        {
          OFFSET -0.025595 -42.7244 0.117519
          CHANNELS 3 Zrotation Xrotation Yrotation
          End Site
          {
            OFFSET 0 -7.69 17.5
          }
        }
      }
    }
    JOINT LeftUpLeg
    {
      OFFSET 9.28488 -1.63184 0.00456132
      CHANNELS 3 Zrotation Xrotation Yrotation
      JOINT LeftLeg
      {
        OFFSET -0.00133996 -41.8929 0.0117795
        CHANNELS 3 Zrotation Xrotation Yrotation
        JOINT LeftFoot
        {
          OFFSET 0.253805 -40.8902 0.809143
          CHANNELS 3 Zrotation Xrotation Yrotation
          End Site
          {
            OFFSET 0 -7.69 17.5
          }
        }
      }
    }
    JOINT Spine
    {
      OFFSET 0.04218 14.2944 0.0529257
      CHANNELS 3 Zrotation Xrotation Yrotation
      JOINT Spine1
      {
        OFFSET 0.022284 9.72228 0.00997239
        CHANNELS 3 Zrotation Xrotation Yrotation
        JOINT Spine2
        {
          OFFSET 0.0397412 10.1199 -0.0103674
          CHANNELS 3 Zrotation Xrotation Yrotation
          JOINT Spine3
          {
            OFFSET 0.0389473 9.71765 -0.00772733
            CHANNELS 3 Zrotation Xrotation Yrotation
            JOINT Neck
            {
              OFFSET 0.0437972 10.3765 0.0320322
              CHANNELS 3 Zrotation Xrotation Yrotation
              JOINT Head
              {
                OFFSET 0.0431994 9.46781 0.0291763
                CHANNELS 3 Zrotation Xrotation Yrotation
                End Site
                {
                  OFFSET 0 15.95 0
                }
              }
            }
            JOINT RightShoulder
            {
              OFFSET -3.17206 6.93005 0.0018626
              CHANNELS 3 Zrotation Xrotation Yrotation
              JOINT RightArm
              {
                OFFSET -12.781 0.0116363 0.0199633
                CHANNELS 3 Zrotation Xrotation Yrotation
                JOINT RightForeArm
                {
                  OFFSET -26.5135 -0.0113607 0.0486864
                  CHANNELS 3 Zrotation Xrotation Yrotation
                  JOINT RightHand
                  {
                    OFFSET -25.9857 -0.0984063 0.163753
                    CHANNELS 3 Zrotation Xrotation Yrotation
                    JOINT RightHandThumb1
                    {
                      OFFSET -2.48905 0.190105 3.12053
                      CHANNELS 3 Zrotation Xrotation Yrotation
                      JOINT RightHandThumb2
                      {
                        OFFSET -3.68274 0 0
                        CHANNELS 3 Zrotation Xrotation Yrotation
                        JOINT RightHandThumb3
                        {
                          OFFSET -2.55832 0 0
                          CHANNELS 3 Zrotation Xrotation Yrotation
                          End Site
                          {
                            OFFSET -2.194 0 0
                          }
                        }
                      }
                    }
                    JOINT RightInHandIndex
                    {
                      OFFSET -3.22368 0.508421 1.97842
                      CHANNELS 3 Zrotation Xrotation Yrotation
                      JOINT RightHandIndex1
                      {
                        OFFSET -5.21684 -0.091368 0.999158
                        CHANNELS 3 Zrotation Xrotation Yrotation
                        JOINT RightHandIndex2
                        {
                          OFFSET -3.61937 0 0
                          CHANNELS 3 Zrotation Xrotation Yrotation
                          JOINT RightHandIndex3
                          {
                            OFFSET -2.0521 0 0
                            CHANNELS 3 Zrotation Xrotation Yrotation
                            End Site
                            {
                              OFFSET -1.805 0 0
                            }
                          }
                        }
                      }
                    }
                    JOINT RightInHandMiddle
                    {
                      OFFSET -3.38211 0.517263 0.756737
                      CHANNELS 3 Zrotation Xrotation Yrotation
                      JOINT RightHandMiddle1
                      {
                        OFFSET -5.17411 -0.084 0.313895
                        CHANNELS 3 Zrotation Xrotation Yrotation
                        JOINT RightHandMiddle2
                        {
                          OFFSET -3.94947 0 0
                          CHANNELS 3 Zrotation Xrotation Yrotation
                          JOINT RightHandMiddle3
                          {
                            OFFSET -2.47579 0 0
                            CHANNELS 3 Zrotation Xrotation Yrotation
                            End Site
                            {
                              OFFSET -1.975 0 0
                            }
                          }
                        }
                      }
                    }
                    JOINT RightInHandRing
                    {
                      OFFSET -3.36516 0.537895 -0.128947
                      CHANNELS 3 Zrotation Xrotation Yrotation
                      JOINT RightHandRing1
                      {
                        OFFSET -4.63474 -0.022105 -0.478947
                        CHANNELS 3 Zrotation Xrotation Yrotation
                        JOINT RightHandRing2
                        {
                          OFFSET -3.44238 0 0
                          CHANNELS 3 Zrotation Xrotation Yrotation
                          JOINT RightHandRing3
                          {
                            OFFSET -2.3881 0 0
                            CHANNELS 3 Zrotation Xrotation Yrotation
                            End Site
                            {
                              OFFSET -1.857 0 0
                            }
                          }
                        }
                      }
                    }
                    JOINT RightInHandPinky
                    {
                      OFFSET -3.16105 0.469368 -1.20179
                      CHANNELS 3 Zrotation Xrotation Yrotation
                      JOINT RightHandPinky1
                      {
                        OFFSET -4.14105 -0.022105 -1.09053
                        CHANNELS 3 Zrotation Xrotation Yrotation
                        JOINT RightHandPinky2
                        {
                          OFFSET -2.75653 0 0
                          CHANNELS 3 Zrotation Xrotation Yrotation
                          JOINT RightHandPinky3
                          {
                            OFFSET -1.74189 0 0
                            CHANNELS 3 Zrotation Xrotation Yrotation
                            End Site
                            {
                              OFFSET -1.645 0 0
                            }
                          }
                        }
                      }
                    }
                  }
                }
              }
            }
            JOINT LeftShoulder
            {
              OFFSET 3.23848 6.90919 -0.0119143
              CHANNELS 3 Zrotation Xrotation Yrotation
              JOINT LeftArm
              {
                OFFSET 12.8241 -0.0554782 -0.0520121
                CHANNELS 3 Zrotation Xrotation Yrotation
                JOINT LeftForeArm
                {
                  OFFSET 26.4865 -0.0658343 -0.0244543
                  CHANNELS 3 Zrotation Xrotation Yrotation
                  JOINT LeftHand
                  {
                    OFFSET 25.985 -0.0475988 -0.0124738
                    CHANNELS 3 Zrotation Xrotation Yrotation
                    JOINT LeftHandThumb1
                    {
                      OFFSET 2.48905 0.190105 3.12053
                      CHANNELS 3 Zrotation Xrotation Yrotation
                      JOINT LeftHandThumb2
                      {
                        OFFSET 3.68274 0 0
                        CHANNELS 3 Zrotation Xrotation Yrotation
                        JOINT LeftHandThumb3
                        {
                          OFFSET 2.55832 0 0
                          CHANNELS 3 Zrotation Xrotation Yrotation
                          End Site
                          {
                            OFFSET 2.194 0 0
                          }
                        }
                      }
                    }
                    JOINT LeftInHandIndex
                    {
                      OFFSET 3.22368 0.508421 1.97842
                      CHANNELS 3 Zrotation Xrotation Yrotation
                      JOINT LeftHandIndex1
                      {
                        OFFSET 5.21684 -0.091368 0.999158
                        CHANNELS 3 Zrotation Xrotation Yrotation
                        JOINT LeftHandIndex2
                        {
                          OFFSET 3.61937 0 0
                          CHANNELS 3 Zrotation Xrotation Yrotation
                          JOINT LeftHandIndex3
                          {
                            OFFSET 2.0521 0 0
                            CHANNELS 3 Zrotation Xrotation Yrotation
                            End Site
                            {
                              OFFSET 1.805 0 0
                            }
                          }
                        }
                      }
                    }
                    JOINT LeftInHandMiddle
                    {
                      OFFSET 3.38211 0.517263 0.756737
                      CHANNELS 3 Zrotation Xrotation Yrotation
                      JOINT LeftHandMiddle1
                      {
                        OFFSET 5.17411 -0.084 0.313895
                        CHANNELS 3 Zrotation Xrotation Yrotation
                        JOINT LeftHandMiddle2
                        {
                          OFFSET 3.94947 0 0
                          CHANNELS 3 Zrotation Xrotation Yrotation
                          JOINT LeftHandMiddle3
                          {
                            OFFSET 2.47579 0 0
                            CHANNELS 3 Zrotation Xrotation Yrotation
                            End Site
                            {
                              OFFSET 1.975 0 0
                            }
                          }
                        }
                      }
                    }
                    JOINT LeftInHandRing
                    {
                      OFFSET 3.36516 0.537895 -0.128947
                      CHANNELS 3 Zrotation Xrotation Yrotation
                      JOINT LeftHandRing1
                      {
                        OFFSET 4.63474 -0.022105 -0.478947
                        CHANNELS 3 Zrotation Xrotation Yrotation
                        JOINT LeftHandRing2
                        {
                          OFFSET 3.44238 0 0
                          CHANNELS 3 Zrotation Xrotation Yrotation
                          JOINT LeftHandRing3
                          {
                            OFFSET 2.3881 0 0
                            CHANNELS 3 Zrotation Xrotation Yrotation
                            End Site
                            {
                              OFFSET 1.857 0 0
                            }
                          }
                        }
                      }
                    }
                    JOINT LeftInHandPinky
                    {
                      OFFSET 3.16105 0.469368 -1.20179
                      CHANNELS 3 Zrotation Xrotation Yrotation
                      JOINT LeftHandPinky1
                      {
                        OFFSET 4.14105 -0.022105 -1.09053
                        CHANNELS 3 Zrotation Xrotation Yrotation
                        JOINT LeftHandPinky2
                        {
                          OFFSET 2.75653 0 0
                          CHANNELS 3 Zrotation Xrotation Yrotation
                          JOINT LeftHandPinky3
                          {
                            OFFSET 1.74189 0 0
                            CHANNELS 3 Zrotation Xrotation Yrotation
                            End Site
                            {
                              OFFSET 1.645 0 0
                            }
                          }
                        }
                      }
                    }
                  }
                }
              }
            }
          }
        }
      }
    }
  }
}
MOTION
Frames:	4
Frame Time:	0.00833333
0 0 0 0 0 -0 28.8744 16.0294 -66.3646 -13.4667 -62.3175 -13.7027 -1.18928 28.8769 -17.1995 7.05611 2.09391 25.3643 8.91389 -55.7901 -2.55226 7.46872 32.2968 -3.39117 -11.5844 -9.18734 -18.558 -8.83807 11.4627 16.7321 -1.88743 3.18263 3.99862 -3.17613 5.19155 6.47147 0.0739614 -0.602448 -0.524374 0.0744649 -0.604179 -0.523905 0.620799 -11.3283 -9.26894 0.0727696 -14.4154 24.4642 67.219 -0.712017 52.2969 27.6337 -60.7911 12.3796 23.1481 -27.0536 -16.967 28.184 10.7294 19.1592 -4.76732e-14 4.37326e-15 -10 -4.49318e-14 -7.55382e-15 -10 -1.76556e-31 -3.18055e-15 -3.18055e-15 19.9818 0.871897 2.3964 24 -2.36057e-14 -2.8625e-14 20 -1.66979e-14 -9.54166e-14 -1.76556e-31 -3.18055e-15 -3.18055e-15 20 -3.18055e-15 6.36111e-15 24 -1.49089e-15 -2.8625e-14 20 -1.82882e-14 -6.67916e-14 -1.76556e-31 -3.18055e-15 -3.18055e-15 19.9748 -1.02565 -2.81938 24 -4.57205e-15 -2.22639e-14 20 -2.3059e-14 -6.36111e-14 -1.76556e-31 -3.18055e-15 -3.18055e-15 19.7815 -3.00948 -8.30515 24 3.18055e-15 -2.54444e-14 20 -3.97569e-15 -4.13472e-14 14.1749 -12.6507 -28.668 -33.2993 29.3131 -72.7232 12.2609 -58.287 14.5884 -23.2817 -25.0056 8.81699 -28.184 10.7294 -19.1592 3.65515e-15 1.59028e-14 10 -4.35126e-15 6.36111e-15 10 -6.36111e-15 -6.36111e-15 -0 -19.9818 0.871897 -2.3964 -24 -1.59028e-15 6.36111e-15 -20 -3.97569e-15 1.90833e-14 -6.36111e-15 -6.36111e-15 -0 -20 9.54166e-15 -6.36111e-15 -24 1.59028e-15 3.18055e-15 -20 -5.1684e-15 6.36111e-15 -6.36111e-15 -6.36111e-15 -0 -19.9748 -1.02565 2.81938 -24 -1.59028e-15 1.27222e-14 -20 -8.34896e-15 9.54166e-15 -6.36111e-15 -6.36111e-15 -0 -19.7815 -3.00948 8.30515 -24 1.11319e-14 1.90833e-14 -20 0 9.54166e-15 
0 0 0 0 0 -0 28.8844 15.9636 -66.4374 -13.3974 -62.3398 -13.6421 -1.22056 28.8319 -17.1175 7.01735 2.17561 25.3657 9.09623 -55.7679 -2.34098 7.31599 32.4362 -3.24547 -11.5546 -9.29662 -18.6671 -8.84514 11.436 16.7473 -1.88724 3.17677 4.00255 -3.17563 5.18253 6.47711 0.0739614 -0.602448 -0.524374 0.0744649 -0.604179 -0.523905 0.559408 -11.2695 -9.27478 0.316975 -14.2578 24.4524 67.0478 -0.640121 52.158 29.0504 -61.1687 14.0341 22.7841 -26.693 -17.1913 28.184 10.7294 19.1592 5.68812e-15 -4.37326e-15 -10 -1.2215e-14 -5.1684e-15 -10 9.54166e-15 3.18055e-15 3.18055e-15 19.9818 0.871897 2.3964 24 -4.87022e-15 3.18055e-15 20 -1.11319e-14 -4.45278e-14 9.54166e-15 3.18055e-15 3.18055e-15 20 1.59028e-15 1.59028e-14 24 4.07509e-15 3.18055e-15 20 8.74653e-15 -3.81667e-14 9.54166e-15 3.18055e-15 3.18055e-15 19.9748 -1.02565 -2.81938 24 -3.97569e-15 1.90833e-14 20 -5.56597e-15 -3.18055e-14 9.54166e-15 3.18055e-15 3.18055e-15 19.7815 -3.00948 -8.30515 24 -1.23246e-14 1.59028e-14 20 1.59028e-15 -9.54166e-15 14.085 -12.6735 -28.6414 -33.2816 29.3773 -72.7161 12.2819 -57.2767 14.5405 -22.9528 -25.0436 8.85489 -28.184 10.7294 -19.1592 7.44559e-15 1.27222e-14 10 2.04994e-14 -6.36111e-15 10 -1.58901e-30 -1.90833e-14 -4.77083e-15 -19.9818 0.871897 -2.3964 -24 -1.27222e-14 -9.54166e-15 -20 -1.39149e-15 2.22639e-14 -1.58901e-30 -1.90833e-14 -4.77083e-15 -20 -3.18055e-15 -1.27222e-14 -24 -7.95139e-15 3.18055e-15 -20 -1.39149e-15 2.54444e-14 -1.58901e-30 -1.90833e-14 -4.77083e-15 -19.9748 -1.02565 2.81938 -24 -2.38542e-15 6.36111e-15 -20 -1.59028e-15 1.27222e-14 -1.58901e-30 -1.90833e-14 -4.77083e-15 -19.7815 -3.00948 8.30515 -24 1.03368e-14 2.54444e-14 -20 -3.18055e-15 3.18055e-15 
0 0 0 0 0 -0 28.8912 15.8983 -66.5179 -13.3183 -62.3682 -13.5735 -1.25445 28.781 -17.0384 6.97261 2.26956 25.3709 9.25407 -55.7484 -2.16927 7.15876 32.5796 -3.09352 -11.5077 -9.40636 -18.7506 -8.85354 11.4075 16.7757 -1.88723 3.17078 4.01 -3.17561 5.17333 6.48827 0.0739614 -0.602448 -0.524374 0.0744649 -0.604179 -0.523905 0.49343 -11.1965 -9.29679 0.520493 -14.0962 24.4437 66.9781 -0.682301 52.0147 30.7289 -61.427 15.9257 22.419 -26.3917 -17.3005 28.184 10.7294 19.1592 -2.17637e-14 -4.37326e-15 -10 -2.2675e-14 -9.54166e-15 -10 6.36111e-15 -9.54166e-15 -6.36111e-15 19.9818 0.871897 2.3964 24 -9.72802e-15 -1.59028e-14 20 -1.19271e-14 -5.725e-14 6.36111e-15 -9.54166e-15 -6.36111e-15 20 -3.18055e-15 -0 24 -5.36719e-15 -1.27222e-14 20 7.95139e-16 -3.49861e-14 6.36111e-15 -9.54166e-15 -6.36111e-15 19.9748 -1.02565 -2.81938 24 -1.16289e-14 -1.27222e-14 20 -4.77083e-15 -2.8625e-14 6.36111e-15 -9.54166e-15 -6.36111e-15 19.7815 -3.00948 -8.30515 24 -5.56597e-15 -1.59028e-14 20 7.95139e-16 -1.90833e-14 14.0275 -12.6943 -28.6293 -33.3453 29.4709 -72.6586 12.3745 -56.176 14.457 -22.5863 -25.0721 8.92893 -28.184 10.7294 -19.1592 2.10798e-15 6.36111e-15 10 1.02497e-14 -3.18055e-15 10 6.36111e-15 6.36111e-15 -0 -19.9818 0.871897 -2.3964 -24 -9.54166e-15 -0 -20 -2.78299e-15 3.18055e-15 6.36111e-15 6.36111e-15 -0 -20 6.36111e-15 -0 -24 7.95139e-15 9.54166e-15 -20 -9.54166e-15 6.36111e-15 6.36111e-15 6.36111e-15 -0 -19.9748 -1.02565 2.81938 -24 -9.54166e-15 -3.18055e-15 -20 -5.96354e-15 2.22639e-14 6.36111e-15 6.36111e-15 -0 -19.7815 -3.00948 8.30515 -24 3.18055e-15 2.54444e-14 -20 -5.56597e-15 -9.54166e-15 
0 0 0 0 0 -0 28.9003 15.8177 -66.5917 -13.2576 -62.396 -13.5341 -1.31261 28.7314 -16.945 6.92415 2.36946 25.3934 9.3007 -55.7523 -2.08829 7.03832 32.7347 -2.97431 -11.4589 -9.50393 -18.788 -8.85505 11.386 16.7959 -1.88718 3.16575 4.01541 -3.17545 5.16543 6.49637 0.068832 -0.598184 -0.524374 0.0693181 -0.599924 -0.523905 0.404493 -11.1142 -9.31643 0.513657 -13.9983 24.4585 67.1935 -0.899658 51.8718 32.4512 -61.622 17.8004 23.7395 -26.7584 -15.8439 28.184 10.7294 19.1592 2.08323e-14 8.24956e-15 -10 3.50511e-16 1.98785e-15 -10 1.27222e-14 -1.59028e-15 -0 19.9818 0.871897 2.3964 24 -8.94531e-15 1.59028e-14 20 -1.43125e-14 -4.77083e-14 1.27222e-14 -1.59028e-15 -0 20 -1.59028e-15 1.90833e-14 24 9.93923e-17 1.90833e-14 20 -9.54166e-15 -2.54444e-14 1.27222e-14 -1.59028e-15 -0 19.9748 -1.02565 -2.81938 24 9.0944e-15 9.54166e-15 20 -3.18055e-15 -1.90833e-14 1.27222e-14 -1.59028e-15 -0 19.7815 -3.00948 -8.30515 24 1.26228e-14 6.36111e-15 20 -4.77083e-15 -6.36111e-15 13.9865 -12.7049 -28.6248 -33.3477 29.4811 -72.6903 12.4996 -55.0502 14.4775 -22.2092 -25.1111 9.02839 -28.184 10.7294 -19.1592 8.00641e-15 9.54166e-15 10 1.67089e-14 -3.18055e-15 10 -5.29669e-31 9.54166e-15 3.18055e-15 -19.9818 0.871897 -2.3964 -24 4.77083e-15 3.18055e-15 -20 -5.06901e-15 2.22639e-14 -5.29669e-31 9.54166e-15 3.18055e-15 -20 3.18055e-15 3.18055e-15 -24 7.95139e-15 1.27222e-14 -20 -8.05078e-15 2.22639e-14 -5.29669e-31 9.54166e-15 3.18055e-15 -19.9748 -1.02565 2.81938 -24 -3.18055e-15 1.90833e-14 -20 -2.38542e-15 3.49861e-14 -5.29669e-31 9.54166e-15 3.18055e-15 -19.7815 -3.00948 8.30515 -24 4.77083e-15 2.22639e-14 -20 -1.59028e-15 -3.18055e-15 
